HIERARCHY
ROOT Hips
{
	OFFSET 0.00000 0.00000 0.00000
	CHANNELS 6 Xposition Yposition Zposition Zrotation Yrotation Xrotation 
	JOINT LHipJoint
	{
		OFFSET 0 0 0
		CHANNELS 3 Zrotation Yrotation Xrotation
		JOINT LeftUpLeg
		{
			OFFSET 2.36090 -1.39315 1.24752
			CHANNELS 3 Zrotation Yrotation Xrotation
			JOINT LeftLeg
			{
				OFFSET 2.06810 -5.68207 0.00000
				CHANNELS 3 Zrotation Yrotation Xrotation
				JOINT LeftFoot
				{
					OFFSET 2.46631 -6.77613 0.00000
					CHANNELS 3 Zrotation Yrotation Xrotation
					JOINT LeftToeBase
					{
						OFFSET 0.26031 -0.71520 1.99545
						CHANNELS 3 Zrotation Yrotation Xrotation
						End Site
						{
							OFFSET 0.00000 -0.00000 1.05957
						}
					}
				}
			}
		}
	}
	JOINT RHipJoint
	{
		OFFSET 0 0 0
		CHANNELS 3 Zrotation Yrotation Xrotation
		JOINT RightUpLeg
		{
			OFFSET -2.25243 -1.39315 1.24752
			CHANNELS 3 Zrotation Yrotation Xrotation
			JOINT RightLeg
			{
				OFFSET -2.17343 -5.97145 0.00000
				CHANNELS 3 Zrotation Yrotation Xrotation
				JOINT RightFoot
				{
					OFFSET -2.52372 -6.93386 0.00000
					CHANNELS 3 Zrotation Yrotation Xrotation
					JOINT RightToeBase
					{
						OFFSET -0.22538 -0.61923 2.11447
						CHANNELS 3 Zrotation Yrotation Xrotation
						End Site
						{
							OFFSET -0.00000 -0.00000 1.10506
						}
					}
				}
			}
		}
	}
	JOINT LowerBack
	{
		OFFSET 0 0 0
		CHANNELS 3 Zrotation Yrotation Xrotation
		JOINT Spine
		{
			OFFSET 0.01594 2.13103 0.08007
			CHANNELS 3 Zrotation Yrotation Xrotation
			JOINT Spine1
			{
				OFFSET 0.01393 2.09723 0.18338
				CHANNELS 3 Zrotation Yrotation Xrotation
				JOINT Neck
				{
					OFFSET 0 0 0
					CHANNELS 3 Zrotation Yrotation Xrotation
					JOINT Neck1
					{
						OFFSET 0.05351 1.38915 0.32494
						CHANNELS 3 Zrotation Yrotation Xrotation
						JOINT Head
						{
							OFFSET 0.00711 1.45992 -0.21666
							CHANNELS 3 Zrotation Yrotation Xrotation
							End Site
							{
								OFFSET -0.00433 1.47702 -0.11056
							}
						}
					}
				}
				JOINT LeftShoulder
				{
					OFFSET 0 0 0
					CHANNELS 3 Zrotation Yrotation Xrotation
					JOINT LeftArm
					{
						OFFSET 2.87198 0.92249 0.11132
						CHANNELS 3 Zrotation Yrotation Xrotation
						JOINT LeftForeArm
						{
							OFFSET 5.52731 -0.00000 0.00000
							CHANNELS 3 Zrotation Yrotation Xrotation
							JOINT LeftHand
							{
								OFFSET 3.11059 -0.00000 0.00000
								CHANNELS 3 Zrotation Yrotation Xrotation
								JOINT LeftFingerBase
								{
									OFFSET 0 0 0
									CHANNELS 3 Zrotation Yrotation Xrotation
									JOINT LeftHandIndex1
									{
										OFFSET 0.41963 -0.00000 0.00000
										CHANNELS 3 Zrotation Yrotation Xrotation
										End Site
										{
											OFFSET 0.33831 -0.00000 0.00000
										}
									}
								}
								JOINT LThumb
								{
									OFFSET 0 0 0
									CHANNELS 3 Zrotation Yrotation Xrotation
									End Site
									{
										OFFSET 0.34348 -0.00000 0.34348
									}
								}
							}
						}
					}
				}
				JOINT RightShoulder
				{
					OFFSET 0 0 0
					CHANNELS 3 Zrotation Yrotation Xrotation
					JOINT RightArm
					{
						OFFSET -2.94710 0.68072 0.32187
						CHANNELS 3 Zrotation Yrotation Xrotation
						JOINT RightForeArm
						{
							OFFSET -5.25396 -0.00000 -0.00000
							CHANNELS 3 Zrotation Yrotation Xrotation
							JOINT RightHand
							{
								OFFSET -3.10567 -0.00000 0.00000
								CHANNELS 3 Zrotation Yrotation Xrotation
								JOINT RightFingerBase
								{
									OFFSET 0 0 0
									CHANNELS 3 Zrotation Yrotation Xrotation
									JOINT RightHandIndex1
									{
										OFFSET -0.49868 -0.00000 0.00000
										CHANNELS 3 Zrotation Yrotation Xrotation
										End Site
										{
											OFFSET -0.40204 -0.00000 0.00000
										}
									}
								}
								JOINT RThumb
								{
									OFFSET 0 0 0
									CHANNELS 3 Zrotation Yrotation Xrotation
									End Site
									{
										OFFSET -0.40818 -0.00000 0.40818
									}
								}
							}
						}
					}
				}
			}
		}
	}
}
MOTION
Frames: 7
Frame Time: .0083333
5.6817 15.5912 28.4342 0 0 0 0 0 0 -21 0 0 0 0 0 0 0 0 0 0 0 0 0 0 21 0 0 0 0 0 0 0 0 0 0 0 0 0 0 0 0 0 0 0 0 0 0 -16 0 0 21 0 0 11 0 0 0 -8 0 0 0 0 0 0 0 0 0 0 0 0 0 0 0 0 0 0 0 0 8 0 0 0 0 0 0 0 0 0 0 0 0 0 0 0 0 0
5.6817 15.5912 28.4342 -61.8362 -88.6517 76.2941 0.0000 0.0000 0.0000 -19.6441 -20.5293 -9.8621 0.1906 2.8116 7.7546 -0.2009 8.7283 -7.1136 0.1633 -2.6037 -7.1773 0.0000 0.0000 0.0000 20.3562 30.3683 -19.3312 -2.9767 -10.6572 31.1324 -0.3281 -11.4189 -20.2323 -0.0092 -0.6199 1.7035 0.1135 0.1890 -21.7585 0.7669 -0.1724 -4.8321 0.7014 -0.2272 6.8749 4.9855 4.2765 -18.5315 -0.5736 4.4089 25.1366 -0.3962 2.3021 11.3857 0.0000 -0.0000 0.0000 -83.5611 8.2911 41.4613 16.7193 -26.4862 -3.9613 -0.0000 0.0000 -37.4425 27.1961 0.0605 0.0311 -7.1250 0.0000 -0.0000 0.4979 30.0476 -0.1817 0.0000 -0.0000 0.0000 82.1911 -5.2427 47.7237 -14.6377 23.6390 -3.0792 0.0000 -0.0000 -8.2393 -15.8810 -17.9254 5.0042 7.1250 -0.0000 -0.0000 11.7630 -48.2116 -0.9441
5.6808 15.5912 28.4343 -62.0298 -88.6519 76.4773 0.0000 0.0000 0.0000 -19.6532 -20.5194 -9.8414 0.1904 2.8104 7.7513 -0.2015 8.7364 -7.1098 0.1609 -2.5845 -7.1241 0.0000 0.0000 0.0000 20.3654 30.3330 -19.3277 -2.9770 -10.6577 31.1341 -0.3299 -11.3960 -20.2246 -0.0086 -0.6004 1.6500 0.1223 0.1906 -21.7615 0.7641 -0.1716 -4.8230 0.6935 -0.2264 6.8863 5.0246 4.2651 -18.5505 -0.5803 4.3810 25.1444 -0.4090 2.2924 11.3929 -0.0000 -0.0000 0.0000 -83.6646 8.3224 40.9324 16.7165 -26.4825 -3.9601 -0.0000 0.0000 -37.5501 27.4429 0.1425 0.0740 -7.1250 0.0000 -0.0000 0.6931 30.1400 -0.2514 -0.0000 -0.0000 0.0000 82.2028 -5.2323 47.7209 -14.6429 23.6463 -3.0813 0.0000 -0.0000 -8.2271 -15.8686 -17.9534 5.0076 7.1250 -0.0000 -0.0000 11.7837 -48.2379 -0.9536
5.6807 15.5905 28.4344 -62.1569 -88.6617 76.6012 0.0000 0.0000 0.0000 -19.6664 -20.5219 -9.8597 0.1926 2.8265 7.7961 -0.2011 8.7449 -7.1525 0.1608 -2.5840 -7.1226 0.0000 0.0000 0.0000 20.3629 30.3192 -19.3277 -2.9758 -10.6557 31.1274 -0.3271 -11.4124 -20.2140 -0.0077 -0.5660 1.5553 0.1494 0.2034 -21.7686 0.7291 -0.1576 -4.8147 0.6439 -0.2188 6.8988 5.0417 4.2426 -18.5663 -0.5282 4.3273 25.1423 -0.4008 2.2764 11.3930 0.0000 0.0000 0.0000 -83.7312 8.3286 40.3784 16.6917 -26.4496 -3.9490 -0.0000 0.0000 -37.6060 27.5021 0.2504 0.1304 -7.1250 0.0000 -0.0000 0.7407 30.2617 -0.2665 0.0000 0.0000 0.0000 82.2799 -5.2077 47.6005 -14.6215 23.6162 -3.0727 0.0000 -0.0000 -8.1290 -15.8607 -17.9346 5.0000 7.1250 -0.0000 -0.0000 11.7851 -48.2179 -0.9478
5.6775 15.5903 28.4283 -65.7658 -88.6806 80.1628 0.0000 0.0000 0.0000 -19.6571 -20.4115 -9.8197 0.1941 2.8370 7.8253 -0.1976 8.7170 -7.2254 0.1554 -2.5397 -6.9998 0.0000 0.0000 0.0000 20.4401 30.4486 -19.1956 -2.9747 -10.6539 31.1214 -0.3260 -11.4495 -20.2441 -0.0094 -0.6273 1.7239 0.0862 0.2018 -21.7780 0.7628 -0.1472 -4.7884 0.7195 -0.2145 6.9324 4.9074 4.2397 -18.6167 -0.4299 4.3342 25.1885 -0.3402 2.2789 11.4142 -0.0000 0.0000 0.0000 -83.8283 8.3503 39.9378 16.6763 -26.4291 -3.9422 -0.0000 0.0000 -37.7898 27.3874 0.2992 0.1550 -7.1250 0.0000 -0.0000 0.6503 30.3163 -0.2331 -0.0000 0.0000 0.0000 82.2477 -5.1974 47.6469 -14.6342 23.6340 -3.0778 0.0000 -0.0000 -8.1686 -15.8734 -17.8969 4.9940 7.1250 -0.0000 -0.0000 11.7611 -48.1819 -0.9353
5.6758 15.5899 28.4254 -67.6805 -88.6930 82.0500 0.0000 0.0000 0.0000 -19.6614 -20.3558 -9.8023 0.1956 2.8482 7.8565 -0.1958 8.7089 -7.2832 0.1511 -2.5046 -6.9025 0.0000 0.0000 0.0000 20.4778 30.5014 -19.1300 -2.9743 -10.6533 31.1194 -0.3247 -11.4702 -20.2534 -0.0097 -0.6374 1.7515 0.0666 0.2069 -21.7834 0.7635 -0.1355 -4.7720 0.7347 -0.2088 6.9530 4.8212 4.2306 -18.6710 -0.3359 4.3180 25.2355 -0.2927 2.2749 11.4374 -0.0000 0.0000 0.0000 -83.8977 8.3683 39.4848 16.6607 -26.4083 -3.9352 -0.0000 0.0000 -37.9402 27.3689 0.3395 0.1757 -7.1250 0.0000 -0.0000 0.6358 30.3617 -0.2273 -0.0000 0.0000 0.0000 82.2627 -5.1869 47.6301 -14.6355 23.6359 -3.0783 0.0000 -0.0000 -8.1543 -15.8678 -17.8763 4.9867 7.1250 -0.0000 -0.0000 11.7596 -48.1604 -0.9288
5.6743 15.5894 28.4229 -69.4300 -88.7067 83.7736 0.0000 0.0000 0.0000 -19.6703 -20.3038 -9.7817 0.1967 2.8560 7.8781 -0.1940 8.7019 -7.3375 0.1460 -2.4622 -6.7848 0.0000 0.0000 0.0000 20.5081 30.5441 -19.0719 -2.9740 -10.6529 31.1178 -0.3236 -11.4853 -20.2597 -0.0099 -0.6431 1.7672 0.0483 0.2108 -21.7872 0.7622 -0.1255 -4.7575 0.7465 -0.2040 6.9707 4.7219 4.2222 -18.7282 -0.2344 4.3045 25.2857 -0.2396 2.2720 11.4619 0.0000 0.0000 0.0000 -83.9558 8.3867 39.0700 16.6440 -26.3861 -3.9278 -0.0000 0.0000 -38.1054 27.3138 0.3533 0.1825 -7.1250 0.0000 -0.0000 0.5923 30.3771 -0.2115 0.0000 0.0000 0.0000 82.2753 -5.1799 47.6215 -14.6396 23.6416 -3.0800 0.0000 -0.0000 -8.1504 -15.8639 -17.8599 4.9810 7.1250 -0.0000 -0.0000 11.7579 -48.1433 -0.9237
